<svg xmlns="http://www.w3.org/2000/svg" xmlns:xlink="http://www.w3.org/1999/xlink" version="1.1" x="0px" y="0px" viewBox="0 0 64 80" enable-background="new 0 0 64 64" xml:space="preserve"><g><g><path d="M13.167,45.016C8.452,42.021,3.999,39.191,3.999,36c0-0.063-0.024-0.117-0.036-0.178c0.502-0.171,0.96-0.458,1.313-0.87    l12.001-14c0.521-0.608,0.774-1.383,0.713-2.183c-0.062-0.799-0.431-1.526-1.038-2.047C16.409,16.257,15.716,16,15,16    c-0.878,0-1.708,0.382-2.278,1.048l-12.001,14c-1.076,1.256-0.93,3.154,0.325,4.229c0.292,0.25,0.628,0.435,0.986,0.557    C2.022,35.89,1.999,35.941,1.999,36c0,4.29,4.903,7.405,10.096,10.704c1.323,0.841,2.668,1.694,3.944,2.577    c0.017,0.057,0.038,0.111,0.065,0.166c0.46,0.919-0.811,2.839-1.813,3.847c-0.303,0.305-0.379,0.77-0.187,1.153    C14.156,54.552,15.411,57,17.999,57c2.206,0,4-1.794,4-4v-1c0-0.266-0.105-0.52-0.293-0.707    C19.369,48.956,16.216,46.953,13.167,45.016z"/><path d="M48.167,45.016c-4.715-2.995-9.168-5.824-9.168-9.016c0-0.063-0.024-0.117-0.036-0.178c0.502-0.171,0.96-0.458,1.313-0.87    l12.001-14c0.521-0.608,0.774-1.383,0.713-2.183c-0.062-0.799-0.431-1.526-1.038-2.047C51.409,16.257,50.716,16,50,16    c-0.878,0-1.708,0.382-2.278,1.048l-12.001,14c-1.076,1.256-0.93,3.154,0.325,4.229c0.292,0.25,0.628,0.435,0.986,0.557    c-0.01,0.056-0.033,0.107-0.033,0.166c0,4.29,4.903,7.405,10.096,10.704c1.323,0.841,2.668,1.694,3.944,2.577    c0.017,0.057,0.038,0.111,0.065,0.166c0.46,0.919-0.811,2.839-1.813,3.847c-0.303,0.305-0.379,0.77-0.187,1.153    C49.156,54.552,50.411,57,52.999,57c2.206,0,4-1.794,4-4v-1c0-0.266-0.105-0.52-0.293-0.707    C54.369,48.956,51.216,46.953,48.167,45.016z"/><path d="M19.977,19c0.001,1.192-0.396,2.337-1.18,3.252L16.441,25h21.829l5.144-6H38v1c0,0.553-0.447,1-1,1H25    c-0.553,0-1-0.447-1-1v-1H19.977z"/><path d="M8.414,19H5v3c0,0.29,0.055,0.564,0.131,0.829L8.414,19z"/><rect x="26" y="17" width="2" height="2"/><path d="M63.364,12.154C62.792,11.421,61.93,11,61,11H12c-0.801,0-1.555,0.313-2.121,0.879l-4,4    c-0.32,0.32-0.55,0.705-0.697,1.121h4.946l1.075-1.254C12.153,14.637,13.537,14,15,14c1.193,0,2.349,0.428,3.255,1.205    c0.579,0.497,1.011,1.114,1.309,1.795H24v-1c0-0.553,0.447-1,1-1h12c0.553,0,1,0.447,1,1v1h7.128l1.075-1.254    C47.153,14.637,48.537,14,50,14c1.193,0,2.349,0.428,3.255,1.205c1.012,0.867,1.627,2.079,1.729,3.411    c0.103,1.33-0.319,2.622-1.188,3.636L51.441,25H59c1.379,0,2.576-0.935,2.91-2.272l2-8C64.136,13.826,63.938,12.888,63.364,12.154    z"/><rect x="34" y="17" width="2" height="2"/><rect x="30" y="17" width="2" height="2"/><path d="M33,7h-4c-1.308,0-2.578,0.839-3.179,2h10.357C35.578,7.839,34.308,7,33,7z"/></g></g><text x="0" y="79" fill="#000000" font-size="5px" font-weight="bold" font-family="'Helvetica Neue', Helvetica, Arial-Unicode, Arial, Sans-serif">Created by Izwar Muis</text><text x="0" y="84" fill="#000000" font-size="5px" font-weight="bold" font-family="'Helvetica Neue', Helvetica, Arial-Unicode, Arial, Sans-serif">from the Noun Project</text></svg>